<?xml version="1.0" encoding="iso-8859-1"?>
<!-- Generator: Adobe Illustrator 21.0.0, SVG Export Plug-In . SVG Version: 6.00 Build 0)  -->
<svg xmlns="http://www.w3.org/2000/svg" xmlns:xlink="http://www.w3.org/1999/xlink" version="1.1" id="Capa_1" x="0px" y="0px" viewBox="0 0 512.532 512.532" style="enable-background:new 0 0 512.532 512.532;" xml:space="preserve" width="512" height="512">
<g>
	<path style="fill:#F66722;" d="M362.151,7.5c-46.439,0-86.608,26.818-105.885,65.808C236.99,34.318,196.82,7.5,150.381,7.5   C85.181,7.5,32.325,60.356,32.325,125.556c0,16.3,3.303,31.829,9.277,45.953c17.922,42.372,121.609,166.609,214.663,237.321   c85.481-61.794,201.095-198.128,217.267-244.045c4.323-12.274,6.674-25.476,6.674-39.229C480.207,60.356,427.351,7.5,362.151,7.5z"/>
	<path style="fill:#DF4B0F;" d="M362.151,7.5c-5.058,0-10.035,0.337-14.925,0.954c58.082,7.403,102.982,57.009,102.982,117.102   c0,13.752-2.351,26.955-6.674,39.229c-15.227,43.235-118.614,166.621-202,232.475c4.931,3.988,9.847,7.856,14.733,11.569   c85.481-61.794,201.095-198.128,217.267-244.045c4.323-12.274,6.674-25.477,6.674-39.229C480.207,60.356,427.351,7.5,362.151,7.5z"/>
	<path style="fill:#A2DB18;" d="M330.457,401.225c6.861,5.977,13.736,11.619,20.513,16.769   c49.331-35.662,116.052-114.34,125.385-140.839c2.495-7.083,3.852-14.703,3.852-22.639c0-37.627-30.503-68.13-68.13-68.13   c-26.8,0-49.982,15.477-61.106,37.978c-11.124-22.501-34.306-37.978-61.106-37.978c-37.627,0-68.13,30.503-68.13,68.13   c0,9.407,1.906,18.368,5.354,26.519c3.174,7.503,11.008,19.455,21.894,33.598"/>
	<path style="fill:#A2DB18;" d="M248.982,314.633c20.115,26.131,50.653,59.741,81.475,86.592"/>
	<path style="fill:#6ABA0F;" d="M412.076,186.386c-5.166,0-10.195,0.581-15.031,1.67c30.423,6.824,53.161,33.978,53.161,66.46   c0,7.936-1.357,15.556-3.852,22.639c-8.402,23.855-63.312,89.994-110.175,128.971c4.953,4.172,9.897,8.149,14.79,11.867   c49.331-35.662,116.052-114.34,125.385-140.838c2.495-7.083,3.852-14.702,3.852-22.639   C480.207,216.889,449.704,186.386,412.076,186.386z"/>
	<path style="fill:#F9D735;" d="M285.116,302.19c-23.471,0-43.774,13.555-53.517,33.261c-9.743-19.706-30.045-33.261-53.517-33.261   c-32.954,0-59.668,26.715-59.668,59.668c0,8.238,1.67,16.087,4.689,23.226c9.058,21.416,61.464,84.208,108.496,119.948   c43.204-31.232,101.638-100.139,109.812-123.346c2.185-6.203,3.373-12.876,3.373-19.827   C344.784,328.905,318.07,302.19,285.116,302.19z"/>
	<path style="fill:#E6BF14;" d="M285.116,302.19c-5.181,0-10.207,0.663-14.999,1.904c25.693,6.653,44.668,29.992,44.668,57.765   c0,6.951-1.188,13.624-3.373,19.827c-7.246,20.575-53.997,77.066-94.617,111.382c4.956,4.229,9.91,8.245,14.805,11.964   c43.204-31.232,101.638-100.139,109.812-123.346c2.185-6.204,3.373-12.876,3.373-19.827   C344.784,328.905,318.07,302.19,285.116,302.19z"/>
	<path d="M463.629,199.251c8.384-13.039,14.092-23.782,16.977-31.974c4.711-13.376,7.1-27.413,7.1-41.72   C487.706,56.324,431.382,0,362.151,0c-23.864,0-47.083,6.726-67.146,19.449c-15.644,9.921-28.848,23.117-38.739,38.616   c-9.891-15.499-23.096-28.695-38.739-38.616C197.464,6.726,174.245,0,150.381,0C81.15,0,24.825,56.324,24.825,125.556   c0,16.947,3.321,33.391,9.87,48.874c7.209,17.046,25.003,41.796,38.661,59.557c1.477,1.921,3.701,2.929,5.951,2.929   c1.596,0,3.204-0.507,4.566-1.555c3.284-2.525,3.898-7.234,1.374-10.517c-18.549-24.121-31.595-44.1-36.737-56.256   c-5.763-13.625-8.685-28.102-8.685-43.031C39.825,64.595,89.421,15,150.381,15c21.015,0,41.455,5.919,59.112,17.117   c17.194,10.904,31.043,26.297,40.05,44.515c1.264,2.558,3.87,4.176,6.723,4.176s5.459-1.619,6.723-4.176   c9.007-18.218,22.856-33.611,40.05-44.515C320.696,20.919,341.136,15,362.151,15c60.96,0,110.556,49.595,110.556,110.556   c0,12.606-2.102,24.966-6.248,36.737c-2.398,6.808-7.479,16.351-14.789,27.818c-11.524-7.111-25.085-11.225-39.592-11.225   c-24.586,0-47.019,11.623-61.106,31.021c-14.087-19.398-36.52-31.021-61.106-31.021c-41.703,0-75.63,33.928-75.63,75.63   c0,10.207,2,20.112,5.946,29.441c3.552,8.397,11.301,19.781,18.421,29.379c-2.519,2.426-4.865,5.057-7.002,7.887   c-12.549-16.617-32.114-26.534-53.517-26.534c-9.953,0-19.399,2.193-27.904,6.094c-14.577-15.583-28.604-31.403-41.735-47.094   c-2.658-3.177-7.388-3.598-10.565-0.938c-3.176,2.658-3.597,7.388-0.938,10.565c12.659,15.127,26.129,30.371,40.122,45.408   c-15.89,12.296-26.149,31.533-26.149,53.133c0,9.065,1.777,17.862,5.281,26.147c4.894,11.571,20.714,33.273,41.287,56.638   c13.402,15.222,40.264,44.083,69.58,66.36c1.34,1.018,2.938,1.528,4.538,1.528c1.54,0,3.082-0.473,4.394-1.422   c32.224-23.295,72.943-67.149,95.851-98.832c4.966,4.17,9.873,8.104,14.588,11.687c1.34,1.019,2.938,1.529,4.539,1.529   c1.54,0,3.081-0.473,4.394-1.422c20.101-14.531,53.872-44.757,88.368-86.01c2.657-3.177,2.235-7.907-0.942-10.564   c-3.178-2.657-7.907-2.236-10.564,0.942c-26.449,31.628-57.054,61.805-81.162,80.145c-3.29-2.588-6.656-5.332-10.054-8.193   c-0.231-0.195-0.473-0.368-0.72-0.531c3.9-6.184,6.734-11.537,8.195-15.684c2.521-7.158,3.799-14.667,3.799-22.318   c0-37.037-30.132-67.168-67.168-67.168c-12.507,0-24.383,3.391-34.602,9.522c-8.181-11.053-14.097-20.375-16.518-26.098   c-3.16-7.469-4.762-15.409-4.762-23.597c0-33.432,27.199-60.63,60.63-60.63c23.237,0,44.075,12.952,54.383,33.801   c1.264,2.558,3.87,4.176,6.723,4.176s5.459-1.619,6.723-4.176c10.308-20.849,31.146-33.801,54.383-33.801   c33.432,0,60.63,27.199,60.63,60.63c0,6.915-1.152,13.693-3.426,20.147c-1.322,3.753-5.542,12.756-18.953,30.881   c-2.463,3.33-1.761,8.026,1.568,10.49c3.329,2.464,8.026,1.762,10.49-1.568c11.118-15.025,18.198-26.741,21.043-34.82   c2.838-8.059,4.277-16.514,4.277-25.13C487.706,232.723,478.428,213.065,463.629,199.251z M337.284,361.858   c0,5.95-0.992,11.783-2.947,17.335c-6.921,19.65-60.083,83.9-102.643,116.421c-44.206-34.962-93.25-93.513-101.683-113.453   c-2.718-6.426-4.097-13.257-4.097-20.304c0-28.766,23.403-52.168,52.168-52.168c19.994,0,37.924,11.145,46.793,29.084   c1.264,2.558,3.87,4.176,6.723,4.176s5.459-1.619,6.723-4.176c3.384-6.844,8.089-12.694,13.721-17.319   c0.525-0.236,1.038-0.513,1.514-0.879c0.484-0.373,0.903-0.797,1.269-1.253c8.649-6.169,19.147-9.633,30.289-9.633   C313.881,309.69,337.284,333.093,337.284,361.858z"/>
</g>















</svg>
