<svg id="Capa_1" enable-background="new 0 0 512 512" height="512" viewBox="0 0 512 512" width="512" xmlns="http://www.w3.org/2000/svg"><g><g><g><g><g><g><circle cx="256" cy="256" fill="#ffce00" r="256"/></g></g></g></g></g><path d="m512 256c0-10.106-.586-20.074-1.725-29.875l-107.09-107.089-291.91 276.534 116.612 114.904c9.232 1.008 18.612 1.526 28.113 1.526 141.385 0 256-114.615 256-256z" fill="#ffa300"/><g><g><g><g><g><ellipse cx="256" cy="256" fill="#fff" rx="186.158" ry="186.158" transform="matrix(.707 -.707 .707 .707 -106.039 256)"/><path d="m442.158 256c0-102.692-83.152-185.96-185.799-186.154v372.308c102.647-.195 185.799-83.462 185.799-186.154z" fill="#e9edf5"/><path d="m256 457.158c-110.919 0-201.158-90.239-201.158-201.158s90.239-201.158 201.158-201.158 201.158 90.239 201.158 201.158-90.239 201.158-201.158 201.158zm0-372.316c-94.377 0-171.158 76.781-171.158 171.158s76.781 171.158 171.158 171.158 171.158-76.781 171.158-171.158-76.781-171.158-171.158-171.158z" fill="#636978"/><path d="m457.158 256c0-110.799-90.045-200.958-200.799-201.154v30c94.212.195 170.799 76.897 170.799 171.154s-76.587 170.959-170.799 171.154v30c110.754-.196 200.799-90.355 200.799-201.154z" fill="#414952"/></g></g></g></g></g><g><g><g><g><g><path d="m256.002 388.926c-.002 0 .001 0-.001 0-73.439 0-133.187-59.748-133.188-133.187 0-50.481 27.989-96.027 73.045-118.864l13.563 26.759c-34.917 17.698-56.607 52.991-56.607 92.105.001 56.897 46.291 103.188 103.188 103.188 27.563 0 53.476-10.733 72.965-30.223 19.489-19.489 30.222-45.402 30.222-72.964h30c.001 35.575-13.853 69.022-39.009 94.178-25.156 25.153-58.605 39.008-94.178 39.008z" fill="#1dd882"/></g></g></g></g></g><g><g><g><g><g><path d="m389.188 255.739h-30c0 27.563-10.732 53.475-30.222 72.964-19.405 19.405-45.178 30.126-72.607 30.218v30c35.44-.093 68.75-13.935 93.82-39.005 25.155-25.155 39.009-58.602 39.009-94.177z" fill="#06b26b"/></g></g></g></g></g><g><path d="m241 279.886v-160.85h30v113.078l48.424-23.352 13.031 27.023z" fill="#7584f2"/></g><g><path d="m319.424 208.762-48.424 23.352v-113.078h-14.641v153.444l76.096-36.695z" fill="#606aea"/></g><g><path d="m215.865 202.624-30-.08.115-43.058-43.057-.115.08-30 73.058.195z" fill="#1dd882"/></g></g></svg>