<svg height="512pt" viewBox="0 0 512 512.00064" width="512pt" xmlns="http://www.w3.org/2000/svg"><path d="m507.726562 110.476562-53.101562 53.097657-83.101562-23.097657-23.097657-83.101562 53.097657-53.101562c6-5.699219 15.300781-5.699219 21.300781 0l42.300781 42.601562 42.597656 42.300781c5.703125 6 5.703125 15.300781.003906 21.300781zm0 0" fill="#54469d"/><path d="m507.726562 110.476562-53.101562 53.097657-83.101562-23.097657 93.601562-93.601562 42.597656 42.300781c5.703125 6 5.703125 15.300781.003906 21.300781zm0 0" fill="#392e6e"/><path d="m454.625 163.574219-280.613281 280.316406-96-9.898437-4.5-.601563-5.398438-95.402344 280.3125-280.609375zm0 0" fill="#f27281"/><path d="m454.625 163.574219-280.613281 280.316406-96-9.898437 323.511719-323.515626zm0 0" fill="#e63950"/><path d="m174.011719 443.890625c-1.199219 1.5-3 2.398437-4.5 3.296875l-86.699219 36.902344-55.5 4.5v-3.902344l.601562-55.496094 36.898438-86.703125c.898438-1.5 1.800781-3.296875 3.300781-4.496093zm0 0" fill="#ffcebf"/><path d="m121.210938 391.089844 52.800781 52.800781c-1.199219 1.5-3 2.398437-4.5 3.296875l-86.699219 36.902344-55.503906 4.5v-3.902344zm0 0" fill="#ffa78f"/><path d="m82.8125 484.089844-61.800781 26.699218c-5.699219 2.398438-12.300781 1.199219-16.5-3.300781-4.5000002-4.199219-5.699219-10.800781-3.300781-16.5l26.699218-61.800781zm0 0" fill="#54469d"/><path d="m55.511719 456.789062 27.300781 27.300782-61.800781 26.699218c-5.699219 2.398438-12.300781 1.199219-16.5-3.300781zm0 0" fill="#392e6e"/></svg>